<?xml version="1.0" encoding="utf-8"?>
<!DOCTYPE svg PUBLIC "-//W3C//DTD SVG 1.1//EN" "http://www.w3.org/Graphics/SVG/1.1/DTD/svg11.dtd">
<svg version="1.1" id="Layer_1" xmlns="http://www.w3.org/2000/svg" xmlns:xlink="http://www.w3.org/1999/xlink" x="0px" y="0px"
width="1155px" height="1155px" viewBox="0 0 1155 1155" enable-background="new 0 0 1155 1155" xml:space="preserve">
<rect x="0" y="0" width="1155" height="1155" fill="rgb(0,43,54)" /><g transform="translate(70,70)"><g transform="translate(280,0) scale(2.5,2.5)"><g transform="" style="fill: rgb(108, 113, 196);">
    <path d="M14,14H0c0,0,4.38-9.15,0.55-14C0.55,0,14-0.24,14,14z"/>
</g></g><g transform="translate(350,0) scale(2.5,2.5)"><g transform="" style="fill: rgb(108, 113, 196);">
    <path d="M13.999,0v14c0,0-9.151-4.381-14-0.551C-0.001,13.449-0.242,0,13.999,0z"/>
</g></g><g transform="translate(385,0) scale(0.35,0.35)"><g transform="" style="fill: rgb(108, 113, 196);">
<rect width="100" height="100"/>
</g></g><g transform="translate(420,0) scale(0.35,0.35)"><g transform="" style="fill: rgb(108, 113, 196);">
<rect width="100" height="100"/>
</g></g><g transform="translate(455,0) scale(0.35,0.35)"><g transform="" style="fill: rgb(108, 113, 196);">
<rect width="100" height="100"/>
</g></g><g transform="translate(490,0) scale(0.35,0.35)"><g transform="" style="fill: rgb(108, 113, 196);">
<rect width="100" height="100"/>
</g></g><g transform="translate(525,0) scale(2.5,2.5)"><g transform="" style="fill: rgb(108, 113, 196);">
    <path d="M13.999,13.999H0V0.028v-0.029h3.43C9.269-0.001,13.999,6.267,13.999,13.999z"/>
</g></g><g transform="translate(630,0) scale(2.5,2.5)"><g transform="" style="fill: rgb(108, 113, 196);">
    <path d="M14,14H0c0,0,4.38-9.15,0.55-14C0.55,0,14-0.24,14,14z"/>
</g></g><g transform="translate(280,35) scale(0.35,0.35)"><g transform="" style="fill: rgb(108, 113, 196);">
<rect width="100" height="100"/>
</g></g><g transform="translate(385,35) scale(0.35,0.35)"><g transform="" style="fill: rgb(108, 113, 196);">
<rect width="100" height="100"/>
</g></g><g transform="translate(420,35) scale(0.35,0.35)"><g transform="" style="fill: rgb(108, 113, 196);">
<rect width="100" height="100"/>
</g></g><g transform="translate(455,35) scale(0.35,0.35)"><g transform="" style="fill: rgb(108, 113, 196);">
<rect width="100" height="100"/>
</g></g><g transform="translate(490,35) scale(0.35,0.35)"><g transform="" style="fill: rgb(108, 113, 196);">
<rect width="100" height="100"/>
</g></g><g transform="translate(525,35) scale(2.5,2.5)"><g transform="" style="fill: rgb(108, 113, 196);">
    <path d="M0,14V0h13.971H14v3.43C14,9.27,7.732,14,0,14z"/>
</g></g><g transform="translate(630,35) scale(2.5,2.5)"><g transform="" style="fill: rgb(108, 113, 196);">
        <path d="M0-0.001h14v13.97v0.029l-3.431,0.001C4.731,13.999,0,7.731,0-0.001z"/>
</g></g><g transform="translate(665,35) scale(2.5,2.5)"><g transform="" style="fill: rgb(108, 113, 196);">
    <path d="M0,14V0c0,0,9.15,4.38,14,0.55C14,0.55,14.24,14,0,14z"/>
</g></g><g transform="translate(280,70) scale(2.5,2.5)"><g transform="" style="fill: rgb(108, 113, 196);">
        <path d="M0-0.001h14v13.97v0.029l-3.431,0.001C4.731,13.999,0,7.731,0-0.001z"/>
</g></g><g transform="translate(315,70) scale(2.5,2.5)"><g transform="" style="fill: rgb(108, 113, 196);">
    <path d="M0,14V0c0,0,9.15,4.38,14,0.55C14,0.55,14.24,14,0,14z"/>
</g></g><g transform="translate(385,70) scale(2.5,2.5)"><g transform="" style="fill: rgb(108, 113, 196);">
    <path d="M-0.001,0l14,0c0,0-4.381,9.151-0.551,14C13.448,14-0.001,14.24-0.001,0z"/>
</g></g><g transform="translate(455,70) scale(2.5,2.5)"><g transform="" style="fill: rgb(108, 113, 196);">
        <path d="M0-0.001h14v13.97v0.029l-3.431,0.001C4.731,13.999,0,7.731,0-0.001z"/>
</g></g><g transform="translate(490,70) scale(0.35,0.35)"><g transform="" style="fill: rgb(108, 113, 196);">
<rect width="100" height="100"/>
</g></g><g transform="translate(700,70) scale(2.5,2.5)"><g transform="" style="fill: rgb(108, 113, 196);">
    <path d="M14,14H0c0,0,4.38-9.15,0.55-14C0.55,0,14-0.24,14,14z"/>
</g></g><g transform="translate(420,105) scale(2.5,2.5)"><g transform="" style="fill: rgb(108, 113, 196);">
    <path d="M14,14H0c0,0,4.38-9.15,0.55-14C0.55,0,14-0.24,14,14z"/>
</g></g><g transform="translate(490,105) scale(2.5,2.5)"><g transform="" style="fill: rgb(108, 113, 196);">
        <path d="M0-0.001h14v13.97v0.029l-3.431,0.001C4.731,13.999,0,7.731,0-0.001z"/>
</g></g><g transform="translate(525,105) scale(2.5,2.5)"><g transform="" style="fill: rgb(108, 113, 196);">
    <path d="M13.999,13.999H0V0.028v-0.029h3.43C9.269-0.001,13.999,6.267,13.999,13.999z"/>
</g></g><g transform="translate(595,105) scale(2.5,2.5)"><g transform="" style="fill: rgb(108, 113, 196);">
    <path d="M14,14H0c0,0,4.38-9.15,0.55-14C0.55,0,14-0.24,14,14z"/>
</g></g><g transform="translate(700,105) scale(2.5,2.5)"><g transform="" style="fill: rgb(108, 113, 196);">
    <path d="M-0.001,0l14,0c0,0-4.381,9.151-0.551,14C13.448,14-0.001,14.24-0.001,0z"/>
</g></g><g transform="translate(280,140) scale(2.5,2.5)"><g transform="" style="fill: rgb(108, 113, 196);">
    <path d="M13.999,0v14c0,0-9.151-4.381-14-0.551C-0.001,13.449-0.242,0,13.999,0z"/>
</g></g><g transform="translate(315,140) scale(2.5,2.5)"><g transform="" style="fill: rgb(108, 113, 196);">
    <path d="M0,14V0c0,0,9.15,4.38,14,0.55C14,0.55,14.24,14,0,14z"/>
</g></g><g transform="translate(420,140) scale(0.35,0.35)"><g transform="" style="fill: rgb(108, 113, 196);">
<rect width="100" height="100"/>
</g></g><g transform="translate(455,140) scale(2.5,2.5)"><g transform="" style="fill: rgb(108, 113, 196);">
    <path d="M13.999,13.999H0V0.028v-0.029h3.43C9.269-0.001,13.999,6.267,13.999,13.999z"/>
</g></g><g transform="translate(525,140) scale(2.5,2.5)"><g transform="" style="fill: rgb(108, 113, 196);">
    <path d="M-0.001,0l14,0c0,0-4.381,9.151-0.551,14C13.448,14-0.001,14.24-0.001,0z"/>
</g></g><g transform="translate(595,140) scale(0.35,0.35)"><g transform="" style="fill: rgb(108, 113, 196);">
<rect width="100" height="100"/>
</g></g><g transform="translate(665,140) scale(0.07,0.07)"><g transform="" style="fill: rgb(108, 113, 196);">
<path d="M250,0c138.077,0,250,111.93,250,250c0,138.077-111.923,250-250,250C111.93,500,0,388.077,0,250C0,111.93,111.93,0,250,0z"
	/>
</g></g><g transform="translate(350,175) scale(2.5,2.5)"><g transform="" style="fill: rgb(108, 113, 196);">
    <path d="M14,14H0c0,0,4.38-9.15,0.55-14C0.55,0,14-0.24,14,14z"/>
</g></g><g transform="translate(420,175) scale(0.35,0.35)"><g transform="" style="fill: rgb(108, 113, 196);">
<rect width="100" height="100"/>
</g></g><g transform="translate(455,175) scale(0.35,0.35)"><g transform="" style="fill: rgb(108, 113, 196);">
<rect width="100" height="100"/>
</g></g><g transform="translate(490,175) scale(2.5,2.5)"><g transform="" style="fill: rgb(108, 113, 196);">
    <path d="M13.999,13.999H0V0.028v-0.029h3.43C9.269-0.001,13.999,6.267,13.999,13.999z"/>
</g></g><g transform="translate(595,175) scale(2.5,2.5)"><g transform="" style="fill: rgb(108, 113, 196);">
    <path d="M-0.001,0l14,0c0,0-4.381,9.151-0.551,14C13.448,14-0.001,14.24-0.001,0z"/>
</g></g><g transform="translate(280,210) scale(0.07,0.07)"><g transform="" style="fill: rgb(108, 113, 196);">
<path d="M250,0c138.077,0,250,111.93,250,250c0,138.077-111.923,250-250,250C111.93,500,0,388.077,0,250C0,111.93,111.93,0,250,0z"
	/>
</g></g><g transform="translate(350,210) scale(2.5,2.5)"><g transform="" style="fill: rgb(108, 113, 196);">
    <path d="M-0.001,0l14,0c0,0-4.381,9.151-0.551,14C13.448,14-0.001,14.24-0.001,0z"/>
</g></g><g transform="translate(420,210) scale(2.5,2.5)"><g transform="" style="fill: rgb(108, 113, 196);">
    <path d="M-0.001,0l14,0c0,0-4.381,9.151-0.551,14C13.448,14-0.001,14.24-0.001,0z"/>
</g></g><g transform="translate(490,210) scale(0.35,0.35)"><g transform="" style="fill: rgb(108, 113, 196);">
<rect width="100" height="100"/>
</g></g><g transform="translate(560,210) scale(0.07,0.07)"><g transform="" style="fill: rgb(108, 113, 196);">
<path d="M250,0c138.077,0,250,111.93,250,250c0,138.077-111.923,250-250,250C111.93,500,0,388.077,0,250C0,111.93,111.93,0,250,0z"
	/>
</g></g><g transform="translate(630,210) scale(2.5,2.5)"><g transform="" style="fill: rgb(108, 113, 196);">
    <path d="M14,14H0c0,0,4.38-9.15,0.55-14C0.55,0,14-0.24,14,14z"/>
</g></g><g transform="translate(700,210) scale(0.07,0.07)"><g transform="" style="fill: rgb(108, 113, 196);">
<path d="M250,0c138.077,0,250,111.93,250,250c0,138.077-111.923,250-250,250C111.93,500,0,388.077,0,250C0,111.93,111.93,0,250,0z"
	/>
</g></g><g transform="translate(315,245) scale(2.5,2.5)"><g transform="" style="fill: rgb(108, 113, 196);">
    <path d="M14,14H0c0,0,4.38-9.15,0.55-14C0.55,0,14-0.24,14,14z"/>
</g></g><g transform="translate(490,245) scale(0.35,0.35)"><g transform="" style="fill: rgb(108, 113, 196);">
<rect width="100" height="100"/>
</g></g><g transform="translate(630,245) scale(2.5,2.5)"><g transform="" style="fill: rgb(108, 113, 196);">
    <path d="M-0.001,0l14,0c0,0-4.381,9.151-0.551,14C13.448,14-0.001,14.24-0.001,0z"/>
</g></g><g transform="translate(0,280) scale(2.5,2.5)"><g transform="" style="fill: rgb(108, 113, 196);">
    <path d="M14,14H0c0,0,4.38-9.15,0.55-14C0.55,0,14-0.24,14,14z"/>
</g></g><g transform="translate(105,280) scale(2.5,2.5)"><g transform="" style="fill: rgb(108, 113, 196);">
    <path d="M13.999-0.001v14H0.029H0v-3.431C0,4.729,6.267-0.001,13.999-0.001z"/>
</g></g><g transform="translate(140,280) scale(0.35,0.35)"><g transform="" style="fill: rgb(108, 113, 196);">
<rect width="100" height="100"/>
</g></g><g transform="translate(175,280) scale(0.35,0.35)"><g transform="" style="fill: rgb(108, 113, 196);">
<rect width="100" height="100"/>
</g></g><g transform="translate(210,280) scale(0.35,0.35)"><g transform="" style="fill: rgb(108, 113, 196);">
<rect width="100" height="100"/>
</g></g><g transform="translate(245,280) scale(0.35,0.35)"><g transform="" style="fill: rgb(108, 113, 196);">
<rect width="100" height="100"/>
</g></g><g transform="translate(280,280) scale(0.35,0.35)"><g transform="" style="fill: rgb(108, 113, 196);">
<rect width="100" height="100"/>
</g></g><g transform="translate(315,280) scale(0.35,0.35)"><g transform="" style="fill: rgb(108, 113, 196);">
<rect width="100" height="100"/>
</g></g><g transform="translate(350,280) scale(0.35,0.35)"><g transform="" style="fill: rgb(108, 113, 196);">
<rect width="100" height="100"/>
</g></g><g transform="translate(385,280) scale(0.35,0.35)"><g transform="" style="fill: rgb(108, 113, 196);">
<rect width="100" height="100"/>
</g></g><g transform="translate(420,280) scale(0.35,0.35)"><g transform="" style="fill: rgb(108, 113, 196);">
<rect width="100" height="100"/>
</g></g><g transform="translate(455,280) scale(0.35,0.35)"><g transform="" style="fill: rgb(108, 113, 196);">
<rect width="100" height="100"/>
</g></g><g transform="translate(490,280) scale(0.35,0.35)"><g transform="" style="fill: rgb(108, 113, 196);">
<rect width="100" height="100"/>
</g></g><g transform="translate(525,280) scale(0.35,0.35)"><g transform="" style="fill: rgb(108, 113, 196);">
<rect width="100" height="100"/>
</g></g><g transform="translate(560,280) scale(0.35,0.35)"><g transform="" style="fill: rgb(108, 113, 196);">
<rect width="100" height="100"/>
</g></g><g transform="translate(595,280) scale(2.5,2.5)"><g transform="" style="fill: rgb(108, 113, 196);">
    <path d="M13.999,13.999H0V0.028v-0.029h3.43C9.269-0.001,13.999,6.267,13.999,13.999z"/>
</g></g><g transform="translate(735,280) scale(2.5,2.5)"><g transform="" style="fill: rgb(108, 113, 196);">
    <path d="M14,14H0c0,0,4.38-9.15,0.55-14C0.55,0,14-0.24,14,14z"/>
</g></g><g transform="translate(840,280) scale(2.5,2.5)"><g transform="" style="fill: rgb(108, 113, 196);">
    <path d="M14,14H0c0,0,4.38-9.15,0.55-14C0.55,0,14-0.24,14,14z"/>
</g></g><g transform="translate(910,280) scale(2.5,2.5)"><g transform="" style="fill: rgb(108, 113, 196);">
    <path d="M13.999-0.001v14H0.029H0v-3.431C0,4.729,6.267-0.001,13.999-0.001z"/>
</g></g><g transform="translate(945,280) scale(0.35,0.35)"><g transform="" style="fill: rgb(108, 113, 196);">
<rect width="100" height="100"/>
</g></g><g transform="translate(980,280) scale(2.5,2.5)"><g transform="" style="fill: rgb(108, 113, 196);">
    <path d="M0,14V0c0,0,9.15,4.38,14,0.55C14,0.55,14.24,14,0,14z"/>
</g></g><g transform="translate(0,315) scale(0.35,0.35)"><g transform="" style="fill: rgb(108, 113, 196);">
<rect width="100" height="100"/>
</g></g><g transform="translate(35,315) scale(0.35,0.35)"><g transform="" style="fill: rgb(108, 113, 196);">
<rect width="100" height="100"/>
</g></g><g transform="translate(70,315) scale(0.35,0.35)"><g transform="" style="fill: rgb(108, 113, 196);">
<rect width="100" height="100"/>
</g></g><g transform="translate(105,315) scale(0.35,0.35)"><g transform="" style="fill: rgb(108, 113, 196);">
<rect width="100" height="100"/>
</g></g><g transform="translate(175,315) scale(0.35,0.35)"><g transform="" style="fill: rgb(108, 113, 196);">
<rect width="100" height="100"/>
</g></g><g transform="translate(245,315) scale(2.5,2.5)"><g transform="" style="fill: rgb(108, 113, 196);">
    <path d="M-0.001,0l14,0c0,0-4.381,9.151-0.551,14C13.448,14-0.001,14.24-0.001,0z"/>
</g></g><g transform="translate(315,315) scale(2.5,2.5)"><g transform="" style="fill: rgb(108, 113, 196);">
    <path d="M-0.001,0l14,0c0,0-4.381,9.151-0.551,14C13.448,14-0.001,14.24-0.001,0z"/>
</g></g><g transform="translate(490,315) scale(0.35,0.35)"><g transform="" style="fill: rgb(108, 113, 196);">
<rect width="100" height="100"/>
</g></g><g transform="translate(595,315) scale(0.35,0.35)"><g transform="" style="fill: rgb(108, 113, 196);">
<rect width="100" height="100"/>
</g></g><g transform="translate(630,315) scale(0.35,0.35)"><g transform="" style="fill: rgb(108, 113, 196);">
<rect width="100" height="100"/>
</g></g><g transform="translate(665,315) scale(0.35,0.35)"><g transform="" style="fill: rgb(108, 113, 196);">
<rect width="100" height="100"/>
</g></g><g transform="translate(700,315) scale(0.35,0.35)"><g transform="" style="fill: rgb(108, 113, 196);">
<rect width="100" height="100"/>
</g></g><g transform="translate(735,315) scale(0.35,0.35)"><g transform="" style="fill: rgb(108, 113, 196);">
<rect width="100" height="100"/>
</g></g><g transform="translate(805,315) scale(2.5,2.5)"><g transform="" style="fill: rgb(108, 113, 196);">
    <path d="M13.999-0.001v14H0.029H0v-3.431C0,4.729,6.267-0.001,13.999-0.001z"/>
</g></g><g transform="translate(840,315) scale(2.5,2.5)"><g transform="" style="fill: rgb(108, 113, 196);">
    <path d="M0,14V0h13.971H14v3.43C14,9.27,7.732,14,0,14z"/>
</g></g><g transform="translate(910,315) scale(0.35,0.35)"><g transform="" style="fill: rgb(108, 113, 196);">
<rect width="100" height="100"/>
</g></g><g transform="translate(945,315) scale(2.5,2.5)"><g transform="" style="fill: rgb(108, 113, 196);">
    <path d="M0,14V0h13.971H14v3.43C14,9.27,7.732,14,0,14z"/>
</g></g><g transform="translate(0,350) scale(0.35,0.35)"><g transform="" style="fill: rgb(108, 113, 196);">
<rect width="100" height="100"/>
</g></g><g transform="translate(35,350) scale(0.35,0.35)"><g transform="" style="fill: rgb(108, 113, 196);">
<rect width="100" height="100"/>
</g></g><g transform="translate(70,350) scale(0.35,0.35)"><g transform="" style="fill: rgb(108, 113, 196);">
<rect width="100" height="100"/>
</g></g><g transform="translate(105,350) scale(0.35,0.35)"><g transform="" style="fill: rgb(108, 113, 196);">
<rect width="100" height="100"/>
</g></g><g transform="translate(175,350) scale(2.5,2.5)"><g transform="" style="fill: rgb(108, 113, 196);">
        <path d="M0-0.001h14v13.97v0.029l-3.431,0.001C4.731,13.999,0,7.731,0-0.001z"/>
</g></g><g transform="translate(210,350) scale(2.5,2.5)"><g transform="" style="fill: rgb(108, 113, 196);">
    <path d="M0,14V0c0,0,9.15,4.38,14,0.55C14,0.55,14.24,14,0,14z"/>
</g></g><g transform="translate(280,350) scale(0.07,0.07)"><g transform="" style="fill: rgb(108, 113, 196);">
<path d="M250,0c138.077,0,250,111.93,250,250c0,138.077-111.923,250-250,250C111.93,500,0,388.077,0,250C0,111.93,111.93,0,250,0z"
	/>
</g></g><g transform="translate(350,350) scale(2.5,2.5)"><g transform="" style="fill: rgb(108, 113, 196);">
    <path d="M13.999,0v14c0,0-9.151-4.381-14-0.551C-0.001,13.449-0.242,0,13.999,0z"/>
</g></g><g transform="translate(385,350) scale(0.35,0.35)"><g transform="" style="fill: rgb(108, 113, 196);">
<rect width="100" height="100"/>
</g></g><g transform="translate(420,350) scale(2.5,2.5)"><g transform="" style="fill: rgb(108, 113, 196);">
    <path d="M0,14V0c0,0,9.15,4.38,14,0.55C14,0.55,14.24,14,0,14z"/>
</g></g><g transform="translate(490,350) scale(0.35,0.35)"><g transform="" style="fill: rgb(108, 113, 196);">
<rect width="100" height="100"/>
</g></g><g transform="translate(595,350) scale(0.35,0.35)"><g transform="" style="fill: rgb(108, 113, 196);">
<rect width="100" height="100"/>
</g></g><g transform="translate(630,350) scale(0.35,0.35)"><g transform="" style="fill: rgb(108, 113, 196);">
<rect width="100" height="100"/>
</g></g><g transform="translate(735,350) scale(0.35,0.35)"><g transform="" style="fill: rgb(108, 113, 196);">
<rect width="100" height="100"/>
</g></g><g transform="translate(770,350) scale(0.35,0.35)"><g transform="" style="fill: rgb(108, 113, 196);">
<rect width="100" height="100"/>
</g></g><g transform="translate(805,350) scale(0.35,0.35)"><g transform="" style="fill: rgb(108, 113, 196);">
<rect width="100" height="100"/>
</g></g><g transform="translate(910,350) scale(2.5,2.5)"><g transform="" style="fill: rgb(108, 113, 196);">
    <path d="M-0.001,0l14,0c0,0-4.381,9.151-0.551,14C13.448,14-0.001,14.24-0.001,0z"/>
</g></g><g transform="translate(0,385) scale(2.5,2.5)"><g transform="" style="fill: rgb(108, 113, 196);">
    <path d="M-0.001,0l14,0c0,0-4.381,9.151-0.551,14C13.448,14-0.001,14.24-0.001,0z"/>
</g></g><g transform="translate(105,385) scale(0.35,0.35)"><g transform="" style="fill: rgb(108, 113, 196);">
<rect width="100" height="100"/>
</g></g><g transform="translate(140,385) scale(2.5,2.5)"><g transform="" style="fill: rgb(108, 113, 196);">
    <path d="M13.999,13.999H0V0.028v-0.029h3.43C9.269-0.001,13.999,6.267,13.999,13.999z"/>
</g></g><g transform="translate(245,385) scale(0.07,0.07)"><g transform="" style="fill: rgb(108, 113, 196);">
<path d="M250,0c138.077,0,250,111.93,250,250c0,138.077-111.923,250-250,250C111.93,500,0,388.077,0,250C0,111.93,111.93,0,250,0z"
	/>
</g></g><g transform="translate(490,385) scale(0.35,0.35)"><g transform="" style="fill: rgb(108, 113, 196);">
<rect width="100" height="100"/>
</g></g><g transform="translate(525,385) scale(2.5,2.5)"><g transform="" style="fill: rgb(108, 113, 196);">
    <path d="M0,14V0c0,0,9.15,4.38,14,0.55C14,0.55,14.24,14,0,14z"/>
</g></g><g transform="translate(595,385) scale(2.5,2.5)"><g transform="" style="fill: rgb(108, 113, 196);">
        <path d="M0-0.001h14v13.97v0.029l-3.431,0.001C4.731,13.999,0,7.731,0-0.001z"/>
</g></g><g transform="translate(630,385) scale(2.5,2.5)"><g transform="" style="fill: rgb(108, 113, 196);">
    <path d="M0,14V0h13.971H14v3.43C14,9.27,7.732,14,0,14z"/>
</g></g><g transform="translate(735,385) scale(2.5,2.5)"><g transform="" style="fill: rgb(108, 113, 196);">
        <path d="M0-0.001h14v13.97v0.029l-3.431,0.001C4.731,13.999,0,7.731,0-0.001z"/>
</g></g><g transform="translate(770,385) scale(0.35,0.35)"><g transform="" style="fill: rgb(108, 113, 196);">
<rect width="100" height="100"/>
</g></g><g transform="translate(805,385) scale(2.5,2.5)"><g transform="" style="fill: rgb(108, 113, 196);">
    <path d="M0,14V0h13.971H14v3.43C14,9.27,7.732,14,0,14z"/>
</g></g><g transform="translate(875,385) scale(0.07,0.07)"><g transform="" style="fill: rgb(108, 113, 196);">
<path d="M250,0c138.077,0,250,111.93,250,250c0,138.077-111.923,250-250,250C111.93,500,0,388.077,0,250C0,111.93,111.93,0,250,0z"
	/>
</g></g><g transform="translate(980,385) scale(2.5,2.5)"><g transform="" style="fill: rgb(108, 113, 196);">
    <path d="M14,14H0c0,0,4.38-9.15,0.55-14C0.55,0,14-0.24,14,14z"/>
</g></g><g transform="translate(70,420) scale(2.5,2.5)"><g transform="" style="fill: rgb(108, 113, 196);">
    <path d="M13.999-0.001v14H0.029H0v-3.431C0,4.729,6.267-0.001,13.999-0.001z"/>
</g></g><g transform="translate(105,420) scale(0.35,0.35)"><g transform="" style="fill: rgb(108, 113, 196);">
<rect width="100" height="100"/>
</g></g><g transform="translate(140,420) scale(0.35,0.35)"><g transform="" style="fill: rgb(108, 113, 196);">
<rect width="100" height="100"/>
</g></g><g transform="translate(175,420) scale(0.35,0.35)"><g transform="" style="fill: rgb(108, 113, 196);">
<rect width="100" height="100"/>
</g></g><g transform="translate(210,420) scale(2.5,2.5)"><g transform="" style="fill: rgb(108, 113, 196);">
    <path d="M0,14V0c0,0,9.15,4.38,14,0.55C14,0.55,14.24,14,0,14z"/>
</g></g><g transform="translate(455,420) scale(2.5,2.5)"><g transform="" style="fill: rgb(108, 113, 196);">
    <path d="M13.999,0v14c0,0-9.151-4.381-14-0.551C-0.001,13.449-0.242,0,13.999,0z"/>
</g></g><g transform="translate(490,420) scale(2.5,2.5)"><g transform="" style="fill: rgb(108, 113, 196);">
    <path d="M0,14V0h13.971H14v3.43C14,9.27,7.732,14,0,14z"/>
</g></g><g transform="translate(770,420) scale(0.35,0.35)"><g transform="" style="fill: rgb(108, 113, 196);">
<rect width="100" height="100"/>
</g></g><g transform="translate(980,420) scale(0.35,0.35)"><g transform="" style="fill: rgb(108, 113, 196);">
<rect width="100" height="100"/>
</g></g><g transform="translate(0,455) scale(2.5,2.5)"><g transform="" style="fill: rgb(108, 113, 196);">
    <path d="M13.999-0.001v14H0.029H0v-3.431C0,4.729,6.267-0.001,13.999-0.001z"/>
</g></g><g transform="translate(35,455) scale(0.35,0.35)"><g transform="" style="fill: rgb(108, 113, 196);">
<rect width="100" height="100"/>
</g></g><g transform="translate(70,455) scale(0.35,0.35)"><g transform="" style="fill: rgb(108, 113, 196);">
<rect width="100" height="100"/>
</g></g><g transform="translate(105,455) scale(0.35,0.35)"><g transform="" style="fill: rgb(108, 113, 196);">
<rect width="100" height="100"/>
</g></g><g transform="translate(140,455) scale(2.5,2.5)"><g transform="" style="fill: rgb(108, 113, 196);">
    <path d="M0,14V0h13.971H14v3.43C14,9.27,7.732,14,0,14z"/>
</g></g><g transform="translate(280,455) scale(2.5,2.5)"><g transform="" style="fill: rgb(108, 113, 196);">
    <path d="M13.999,0v14c0,0-9.151-4.381-14-0.551C-0.001,13.449-0.242,0,13.999,0z"/>
</g></g><g transform="translate(315,455) scale(0.35,0.35)"><g transform="" style="fill: rgb(108, 113, 196);">
<rect width="100" height="100"/>
</g></g><g transform="translate(350,455) scale(2.5,2.5)"><g transform="" style="fill: rgb(108, 113, 196);">
    <path d="M13.999,13.999H0V0.028v-0.029h3.43C9.269-0.001,13.999,6.267,13.999,13.999z"/>
</g></g><g transform="translate(420,455) scale(0.07,0.07)"><g transform="" style="fill: rgb(108, 113, 196);">
<path d="M250,0c138.077,0,250,111.93,250,250c0,138.077-111.923,250-250,250C111.93,500,0,388.077,0,250C0,111.93,111.93,0,250,0z"
	/>
</g></g><g transform="translate(770,455) scale(2.5,2.5)"><g transform="" style="fill: rgb(108, 113, 196);">
        <path d="M0-0.001h14v13.97v0.029l-3.431,0.001C4.731,13.999,0,7.731,0-0.001z"/>
</g></g><g transform="translate(805,455) scale(0.35,0.35)"><g transform="" style="fill: rgb(108, 113, 196);">
<rect width="100" height="100"/>
</g></g><g transform="translate(840,455) scale(0.35,0.35)"><g transform="" style="fill: rgb(108, 113, 196);">
<rect width="100" height="100"/>
</g></g><g transform="translate(875,455) scale(0.35,0.35)"><g transform="" style="fill: rgb(108, 113, 196);">
<rect width="100" height="100"/>
</g></g><g transform="translate(910,455) scale(0.35,0.35)"><g transform="" style="fill: rgb(108, 113, 196);">
<rect width="100" height="100"/>
</g></g><g transform="translate(945,455) scale(0.35,0.35)"><g transform="" style="fill: rgb(108, 113, 196);">
<rect width="100" height="100"/>
</g></g><g transform="translate(980,455) scale(0.35,0.35)"><g transform="" style="fill: rgb(108, 113, 196);">
<rect width="100" height="100"/>
</g></g><g transform="translate(0,490) scale(2.5,2.5)"><g transform="" style="fill: rgb(108, 113, 196);">
    <path d="M-0.001,0l14,0c0,0-4.381,9.151-0.551,14C13.448,14-0.001,14.24-0.001,0z"/>
</g></g><g transform="translate(105,490) scale(2.5,2.5)"><g transform="" style="fill: rgb(108, 113, 196);">
    <path d="M-0.001,0l14,0c0,0-4.381,9.151-0.551,14C13.448,14-0.001,14.24-0.001,0z"/>
</g></g><g transform="translate(210,490) scale(0.07,0.07)"><g transform="" style="fill: rgb(108, 113, 196);">
<path d="M250,0c138.077,0,250,111.93,250,250c0,138.077-111.923,250-250,250C111.93,500,0,388.077,0,250C0,111.93,111.93,0,250,0z"
	/>
</g></g><g transform="translate(315,490) scale(2.5,2.5)"><g transform="" style="fill: rgb(108, 113, 196);">
        <path d="M0-0.001h14v13.97v0.029l-3.431,0.001C4.731,13.999,0,7.731,0-0.001z"/>
</g></g><g transform="translate(350,490) scale(0.35,0.35)"><g transform="" style="fill: rgb(108, 113, 196);">
<rect width="100" height="100"/>
</g></g><g transform="translate(490,490) scale(2.5,2.5)"><g transform="" style="fill: rgb(108, 113, 196);">
    <path d="M13.999-0.001v14H0.029H0v-3.431C0,4.729,6.267-0.001,13.999-0.001z"/>
</g></g><g transform="translate(525,490) scale(2.5,2.5)"><g transform="" style="fill: rgb(108, 113, 196);">
    <path d="M0,14V0c0,0,9.15,4.38,14,0.55C14,0.55,14.24,14,0,14z"/>
</g></g><g transform="translate(665,490) scale(2.5,2.5)"><g transform="" style="fill: rgb(108, 113, 196);">
    <path d="M13.999,0v14c0,0-9.151-4.381-14-0.551C-0.001,13.449-0.242,0,13.999,0z"/>
</g></g><g transform="translate(700,490) scale(2.5,2.5)"><g transform="" style="fill: rgb(108, 113, 196);">
    <path d="M13.999,13.999H0V0.028v-0.029h3.43C9.269-0.001,13.999,6.267,13.999,13.999z"/>
</g></g><g transform="translate(805,490) scale(2.5,2.5)"><g transform="" style="fill: rgb(108, 113, 196);">
        <path d="M0-0.001h14v13.97v0.029l-3.431,0.001C4.731,13.999,0,7.731,0-0.001z"/>
</g></g><g transform="translate(840,490) scale(0.35,0.35)"><g transform="" style="fill: rgb(108, 113, 196);">
<rect width="100" height="100"/>
</g></g><g transform="translate(910,490) scale(0.35,0.35)"><g transform="" style="fill: rgb(108, 113, 196);">
<rect width="100" height="100"/>
</g></g><g transform="translate(980,490) scale(0.35,0.35)"><g transform="" style="fill: rgb(108, 113, 196);">
<rect width="100" height="100"/>
</g></g><g transform="translate(70,525) scale(2.5,2.5)"><g transform="" style="fill: rgb(108, 113, 196);">
    <path d="M14,14H0c0,0,4.38-9.15,0.55-14C0.55,0,14-0.24,14,14z"/>
</g></g><g transform="translate(140,525) scale(2.5,2.5)"><g transform="" style="fill: rgb(108, 113, 196);">
    <path d="M13.999-0.001v14H0.029H0v-3.431C0,4.729,6.267-0.001,13.999-0.001z"/>
</g></g><g transform="translate(175,525) scale(2.5,2.5)"><g transform="" style="fill: rgb(108, 113, 196);">
    <path d="M0,14V0c0,0,9.15,4.38,14,0.55C14,0.55,14.24,14,0,14z"/>
</g></g><g transform="translate(245,525) scale(2.5,2.5)"><g transform="" style="fill: rgb(108, 113, 196);">
    <path d="M14,14H0c0,0,4.38-9.15,0.55-14C0.55,0,14-0.24,14,14z"/>
</g></g><g transform="translate(350,525) scale(2.5,2.5)"><g transform="" style="fill: rgb(108, 113, 196);">
        <path d="M0-0.001h14v13.97v0.029l-3.431,0.001C4.731,13.999,0,7.731,0-0.001z"/>
</g></g><g transform="translate(385,525) scale(0.35,0.35)"><g transform="" style="fill: rgb(108, 113, 196);">
<rect width="100" height="100"/>
</g></g><g transform="translate(420,525) scale(0.35,0.35)"><g transform="" style="fill: rgb(108, 113, 196);">
<rect width="100" height="100"/>
</g></g><g transform="translate(455,525) scale(0.35,0.35)"><g transform="" style="fill: rgb(108, 113, 196);">
<rect width="100" height="100"/>
</g></g><g transform="translate(490,525) scale(2.5,2.5)"><g transform="" style="fill: rgb(108, 113, 196);">
    <path d="M0,14V0h13.971H14v3.43C14,9.27,7.732,14,0,14z"/>
</g></g><g transform="translate(560,525) scale(0.07,0.07)"><g transform="" style="fill: rgb(108, 113, 196);">
<path d="M250,0c138.077,0,250,111.93,250,250c0,138.077-111.923,250-250,250C111.93,500,0,388.077,0,250C0,111.93,111.93,0,250,0z"
	/>
</g></g><g transform="translate(700,525) scale(2.5,2.5)"><g transform="" style="fill: rgb(108, 113, 196);">
        <path d="M0-0.001h14v13.97v0.029l-3.431,0.001C4.731,13.999,0,7.731,0-0.001z"/>
</g></g><g transform="translate(735,525) scale(0.35,0.35)"><g transform="" style="fill: rgb(108, 113, 196);">
<rect width="100" height="100"/>
</g></g><g transform="translate(770,525) scale(2.5,2.5)"><g transform="" style="fill: rgb(108, 113, 196);">
    <path d="M0,14V0c0,0,9.15,4.38,14,0.55C14,0.55,14.24,14,0,14z"/>
</g></g><g transform="translate(840,525) scale(2.5,2.5)"><g transform="" style="fill: rgb(108, 113, 196);">
    <path d="M-0.001,0l14,0c0,0-4.381,9.151-0.551,14C13.448,14-0.001,14.24-0.001,0z"/>
</g></g><g transform="translate(910,525) scale(2.5,2.5)"><g transform="" style="fill: rgb(108, 113, 196);">
    <path d="M-0.001,0l14,0c0,0-4.381,9.151-0.551,14C13.448,14-0.001,14.24-0.001,0z"/>
</g></g><g transform="translate(980,525) scale(2.5,2.5)"><g transform="" style="fill: rgb(108, 113, 196);">
    <path d="M-0.001,0l14,0c0,0-4.381,9.151-0.551,14C13.448,14-0.001,14.24-0.001,0z"/>
</g></g><g transform="translate(70,560) scale(2.5,2.5)"><g transform="" style="fill: rgb(108, 113, 196);">
        <path d="M0-0.001h14v13.97v0.029l-3.431,0.001C4.731,13.999,0,7.731,0-0.001z"/>
</g></g><g transform="translate(105,560) scale(0.35,0.35)"><g transform="" style="fill: rgb(108, 113, 196);">
<rect width="100" height="100"/>
</g></g><g transform="translate(140,560) scale(2.5,2.5)"><g transform="" style="fill: rgb(108, 113, 196);">
    <path d="M0,14V0h13.971H14v3.43C14,9.27,7.732,14,0,14z"/>
</g></g><g transform="translate(210,560) scale(2.5,2.5)"><g transform="" style="fill: rgb(108, 113, 196);">
    <path d="M13.999,0v14c0,0-9.151-4.381-14-0.551C-0.001,13.449-0.242,0,13.999,0z"/>
</g></g><g transform="translate(245,560) scale(0.35,0.35)"><g transform="" style="fill: rgb(108, 113, 196);">
<rect width="100" height="100"/>
</g></g><g transform="translate(280,560) scale(2.5,2.5)"><g transform="" style="fill: rgb(108, 113, 196);">
    <path d="M13.999,13.999H0V0.028v-0.029h3.43C9.269-0.001,13.999,6.267,13.999,13.999z"/>
</g></g><g transform="translate(420,560) scale(2.5,2.5)"><g transform="" style="fill: rgb(108, 113, 196);">
    <path d="M-0.001,0l14,0c0,0-4.381,9.151-0.551,14C13.448,14-0.001,14.24-0.001,0z"/>
</g></g><g transform="translate(525,560) scale(0.07,0.07)"><g transform="" style="fill: rgb(108, 113, 196);">
<path d="M250,0c138.077,0,250,111.93,250,250c0,138.077-111.923,250-250,250C111.93,500,0,388.077,0,250C0,111.93,111.93,0,250,0z"
	/>
</g></g><g transform="translate(665,560) scale(2.5,2.5)"><g transform="" style="fill: rgb(108, 113, 196);">
    <path d="M14,14H0c0,0,4.38-9.15,0.55-14C0.55,0,14-0.24,14,14z"/>
</g></g><g transform="translate(805,560) scale(0.07,0.07)"><g transform="" style="fill: rgb(108, 113, 196);">
<path d="M250,0c138.077,0,250,111.93,250,250c0,138.077-111.923,250-250,250C111.93,500,0,388.077,0,250C0,111.93,111.93,0,250,0z"
	/>
</g></g><g transform="translate(875,560) scale(0.07,0.07)"><g transform="" style="fill: rgb(108, 113, 196);">
<path d="M250,0c138.077,0,250,111.93,250,250c0,138.077-111.923,250-250,250C111.93,500,0,388.077,0,250C0,111.93,111.93,0,250,0z"
	/>
</g></g><g transform="translate(0,595) scale(2.5,2.5)"><g transform="" style="fill: rgb(108, 113, 196);">
    <path d="M13.999-0.001v14H0.029H0v-3.431C0,4.729,6.267-0.001,13.999-0.001z"/>
</g></g><g transform="translate(35,595) scale(2.5,2.5)"><g transform="" style="fill: rgb(108, 113, 196);">
    <path d="M13.999,13.999H0V0.028v-0.029h3.43C9.269-0.001,13.999,6.267,13.999,13.999z"/>
</g></g><g transform="translate(105,595) scale(0.35,0.35)"><g transform="" style="fill: rgb(108, 113, 196);">
<rect width="100" height="100"/>
</g></g><g transform="translate(175,595) scale(2.5,2.5)"><g transform="" style="fill: rgb(108, 113, 196);">
    <path d="M14,14H0c0,0,4.38-9.15,0.55-14C0.55,0,14-0.24,14,14z"/>
</g></g><g transform="translate(245,595) scale(0.35,0.35)"><g transform="" style="fill: rgb(108, 113, 196);">
<rect width="100" height="100"/>
</g></g><g transform="translate(280,595) scale(0.35,0.35)"><g transform="" style="fill: rgb(108, 113, 196);">
<rect width="100" height="100"/>
</g></g><g transform="translate(385,595) scale(2.5,2.5)"><g transform="" style="fill: rgb(108, 113, 196);">
    <path d="M14,14H0c0,0,4.38-9.15,0.55-14C0.55,0,14-0.24,14,14z"/>
</g></g><g transform="translate(595,595) scale(2.5,2.5)"><g transform="" style="fill: rgb(108, 113, 196);">
    <path d="M13.999,0v14c0,0-9.151-4.381-14-0.551C-0.001,13.449-0.242,0,13.999,0z"/>
</g></g><g transform="translate(630,595) scale(0.35,0.35)"><g transform="" style="fill: rgb(108, 113, 196);">
<rect width="100" height="100"/>
</g></g><g transform="translate(665,595) scale(0.35,0.35)"><g transform="" style="fill: rgb(108, 113, 196);">
<rect width="100" height="100"/>
</g></g><g transform="translate(700,595) scale(2.5,2.5)"><g transform="" style="fill: rgb(108, 113, 196);">
    <path d="M0,14V0c0,0,9.15,4.38,14,0.55C14,0.55,14.24,14,0,14z"/>
</g></g><g transform="translate(840,595) scale(0.07,0.07)"><g transform="" style="fill: rgb(108, 113, 196);">
<path d="M250,0c138.077,0,250,111.93,250,250c0,138.077-111.923,250-250,250C111.93,500,0,388.077,0,250C0,111.93,111.93,0,250,0z"
	/>
</g></g><g transform="translate(910,595) scale(2.5,2.5)"><g transform="" style="fill: rgb(108, 113, 196);">
    <path d="M13.999,0v14c0,0-9.151-4.381-14-0.551C-0.001,13.449-0.242,0,13.999,0z"/>
</g></g><g transform="translate(945,595) scale(2.5,2.5)"><g transform="" style="fill: rgb(108, 113, 196);">
    <path d="M0,14V0c0,0,9.15,4.38,14,0.55C14,0.55,14.24,14,0,14z"/>
</g></g><g transform="translate(0,630) scale(0.35,0.35)"><g transform="" style="fill: rgb(108, 113, 196);">
<rect width="100" height="100"/>
</g></g><g transform="translate(35,630) scale(0.35,0.35)"><g transform="" style="fill: rgb(108, 113, 196);">
<rect width="100" height="100"/>
</g></g><g transform="translate(70,630) scale(0.35,0.35)"><g transform="" style="fill: rgb(108, 113, 196);">
<rect width="100" height="100"/>
</g></g><g transform="translate(105,630) scale(2.5,2.5)"><g transform="" style="fill: rgb(108, 113, 196);">
    <path d="M0,14V0h13.971H14v3.43C14,9.27,7.732,14,0,14z"/>
</g></g><g transform="translate(175,630) scale(2.5,2.5)"><g transform="" style="fill: rgb(108, 113, 196);">
        <path d="M0-0.001h14v13.97v0.029l-3.431,0.001C4.731,13.999,0,7.731,0-0.001z"/>
</g></g><g transform="translate(210,630) scale(0.35,0.35)"><g transform="" style="fill: rgb(108, 113, 196);">
<rect width="100" height="100"/>
</g></g><g transform="translate(245,630) scale(0.35,0.35)"><g transform="" style="fill: rgb(108, 113, 196);">
<rect width="100" height="100"/>
</g></g><g transform="translate(280,630) scale(0.35,0.35)"><g transform="" style="fill: rgb(108, 113, 196);">
<rect width="100" height="100"/>
</g></g><g transform="translate(315,630) scale(0.35,0.35)"><g transform="" style="fill: rgb(108, 113, 196);">
<rect width="100" height="100"/>
</g></g><g transform="translate(350,630) scale(0.35,0.35)"><g transform="" style="fill: rgb(108, 113, 196);">
<rect width="100" height="100"/>
</g></g><g transform="translate(385,630) scale(0.35,0.35)"><g transform="" style="fill: rgb(108, 113, 196);">
<rect width="100" height="100"/>
</g></g><g transform="translate(455,630) scale(2.5,2.5)"><g transform="" style="fill: rgb(108, 113, 196);">
    <path d="M13.999-0.001v14H0.029H0v-3.431C0,4.729,6.267-0.001,13.999-0.001z"/>
</g></g><g transform="translate(490,630) scale(2.5,2.5)"><g transform="" style="fill: rgb(108, 113, 196);">
    <path d="M0,14V0c0,0,9.15,4.38,14,0.55C14,0.55,14.24,14,0,14z"/>
</g></g><g transform="translate(560,630) scale(2.5,2.5)"><g transform="" style="fill: rgb(108, 113, 196);">
    <path d="M14,14H0c0,0,4.38-9.15,0.55-14C0.55,0,14-0.24,14,14z"/>
</g></g><g transform="translate(630,630) scale(0.35,0.35)"><g transform="" style="fill: rgb(108, 113, 196);">
<rect width="100" height="100"/>
</g></g><g transform="translate(665,630) scale(0.35,0.35)"><g transform="" style="fill: rgb(108, 113, 196);">
<rect width="100" height="100"/>
</g></g><g transform="translate(805,630) scale(0.07,0.07)"><g transform="" style="fill: rgb(108, 113, 196);">
<path d="M250,0c138.077,0,250,111.93,250,250c0,138.077-111.923,250-250,250C111.93,500,0,388.077,0,250C0,111.93,111.93,0,250,0z"
	/>
</g></g><g transform="translate(875,630) scale(2.5,2.5)"><g transform="" style="fill: rgb(108, 113, 196);">
    <path d="M14,14H0c0,0,4.38-9.15,0.55-14C0.55,0,14-0.24,14,14z"/>
</g></g><g transform="translate(980,630) scale(0.07,0.07)"><g transform="" style="fill: rgb(108, 113, 196);">
<path d="M250,0c138.077,0,250,111.93,250,250c0,138.077-111.923,250-250,250C111.93,500,0,388.077,0,250C0,111.93,111.93,0,250,0z"
	/>
</g></g><g transform="translate(0,665) scale(0.35,0.35)"><g transform="" style="fill: rgb(108, 113, 196);">
<rect width="100" height="100"/>
</g></g><g transform="translate(35,665) scale(0.35,0.35)"><g transform="" style="fill: rgb(108, 113, 196);">
<rect width="100" height="100"/>
</g></g><g transform="translate(70,665) scale(0.35,0.35)"><g transform="" style="fill: rgb(108, 113, 196);">
<rect width="100" height="100"/>
</g></g><g transform="translate(140,665) scale(2.5,2.5)"><g transform="" style="fill: rgb(108, 113, 196);">
    <path d="M14,14H0c0,0,4.38-9.15,0.55-14C0.55,0,14-0.24,14,14z"/>
</g></g><g transform="translate(350,665) scale(2.5,2.5)"><g transform="" style="fill: rgb(108, 113, 196);">
        <path d="M0-0.001h14v13.97v0.029l-3.431,0.001C4.731,13.999,0,7.731,0-0.001z"/>
</g></g><g transform="translate(385,665) scale(0.35,0.35)"><g transform="" style="fill: rgb(108, 113, 196);">
<rect width="100" height="100"/>
</g></g><g transform="translate(420,665) scale(0.35,0.35)"><g transform="" style="fill: rgb(108, 113, 196);">
<rect width="100" height="100"/>
</g></g><g transform="translate(455,665) scale(0.35,0.35)"><g transform="" style="fill: rgb(108, 113, 196);">
<rect width="100" height="100"/>
</g></g><g transform="translate(525,665) scale(2.5,2.5)"><g transform="" style="fill: rgb(108, 113, 196);">
    <path d="M13.999,0v14c0,0-9.151-4.381-14-0.551C-0.001,13.449-0.242,0,13.999,0z"/>
</g></g><g transform="translate(560,665) scale(0.35,0.35)"><g transform="" style="fill: rgb(108, 113, 196);">
<rect width="100" height="100"/>
</g></g><g transform="translate(630,665) scale(0.35,0.35)"><g transform="" style="fill: rgb(108, 113, 196);">
<rect width="100" height="100"/>
</g></g><g transform="translate(665,665) scale(0.35,0.35)"><g transform="" style="fill: rgb(108, 113, 196);">
<rect width="100" height="100"/>
</g></g><g transform="translate(700,665) scale(0.35,0.35)"><g transform="" style="fill: rgb(108, 113, 196);">
<rect width="100" height="100"/>
</g></g><g transform="translate(735,665) scale(0.35,0.35)"><g transform="" style="fill: rgb(108, 113, 196);">
<rect width="100" height="100"/>
</g></g><g transform="translate(770,665) scale(2.5,2.5)"><g transform="" style="fill: rgb(108, 113, 196);">
    <path d="M13.999,13.999H0V0.028v-0.029h3.43C9.269-0.001,13.999,6.267,13.999,13.999z"/>
</g></g><g transform="translate(840,665) scale(2.5,2.5)"><g transform="" style="fill: rgb(108, 113, 196);">
    <path d="M13.999-0.001v14H0.029H0v-3.431C0,4.729,6.267-0.001,13.999-0.001z"/>
</g></g><g transform="translate(875,665) scale(0.35,0.35)"><g transform="" style="fill: rgb(108, 113, 196);">
<rect width="100" height="100"/>
</g></g><g transform="translate(910,665) scale(2.5,2.5)"><g transform="" style="fill: rgb(108, 113, 196);">
    <path d="M13.999,13.999H0V0.028v-0.029h3.43C9.269-0.001,13.999,6.267,13.999,13.999z"/>
</g></g><g transform="translate(0,700) scale(2.5,2.5)"><g transform="" style="fill: rgb(108, 113, 196);">
        <path d="M0-0.001h14v13.97v0.029l-3.431,0.001C4.731,13.999,0,7.731,0-0.001z"/>
</g></g><g transform="translate(35,700) scale(0.35,0.35)"><g transform="" style="fill: rgb(108, 113, 196);">
<rect width="100" height="100"/>
</g></g><g transform="translate(70,700) scale(0.35,0.35)"><g transform="" style="fill: rgb(108, 113, 196);">
<rect width="100" height="100"/>
</g></g><g transform="translate(105,700) scale(0.35,0.35)"><g transform="" style="fill: rgb(108, 113, 196);">
<rect width="100" height="100"/>
</g></g><g transform="translate(140,700) scale(2.5,2.5)"><g transform="" style="fill: rgb(108, 113, 196);">
    <path d="M0,14V0h13.971H14v3.43C14,9.27,7.732,14,0,14z"/>
</g></g><g transform="translate(210,700) scale(2.5,2.5)"><g transform="" style="fill: rgb(108, 113, 196);">
    <path d="M13.999,0v14c0,0-9.151-4.381-14-0.551C-0.001,13.449-0.242,0,13.999,0z"/>
</g></g><g transform="translate(245,700) scale(2.5,2.5)"><g transform="" style="fill: rgb(108, 113, 196);">
    <path d="M0,14V0c0,0,9.15,4.38,14,0.55C14,0.55,14.24,14,0,14z"/>
</g></g><g transform="translate(420,700) scale(0.35,0.35)"><g transform="" style="fill: rgb(108, 113, 196);">
<rect width="100" height="100"/>
</g></g><g transform="translate(455,700) scale(0.35,0.35)"><g transform="" style="fill: rgb(108, 113, 196);">
<rect width="100" height="100"/>
</g></g><g transform="translate(560,700) scale(0.35,0.35)"><g transform="" style="fill: rgb(108, 113, 196);">
<rect width="100" height="100"/>
</g></g><g transform="translate(595,700) scale(0.35,0.35)"><g transform="" style="fill: rgb(108, 113, 196);">
<rect width="100" height="100"/>
</g></g><g transform="translate(630,700) scale(0.35,0.35)"><g transform="" style="fill: rgb(108, 113, 196);">
<rect width="100" height="100"/>
</g></g><g transform="translate(700,700) scale(0.35,0.35)"><g transform="" style="fill: rgb(108, 113, 196);">
<rect width="100" height="100"/>
</g></g><g transform="translate(735,700) scale(0.35,0.35)"><g transform="" style="fill: rgb(108, 113, 196);">
<rect width="100" height="100"/>
</g></g><g transform="translate(770,700) scale(0.35,0.35)"><g transform="" style="fill: rgb(108, 113, 196);">
<rect width="100" height="100"/>
</g></g><g transform="translate(805,700) scale(0.35,0.35)"><g transform="" style="fill: rgb(108, 113, 196);">
<rect width="100" height="100"/>
</g></g><g transform="translate(840,700) scale(0.35,0.35)"><g transform="" style="fill: rgb(108, 113, 196);">
<rect width="100" height="100"/>
</g></g><g transform="translate(875,700) scale(0.35,0.35)"><g transform="" style="fill: rgb(108, 113, 196);">
<rect width="100" height="100"/>
</g></g><g transform="translate(910,700) scale(0.35,0.35)"><g transform="" style="fill: rgb(108, 113, 196);">
<rect width="100" height="100"/>
</g></g><g transform="translate(945,700) scale(2.5,2.5)"><g transform="" style="fill: rgb(108, 113, 196);">
    <path d="M0,14V0c0,0,9.15,4.38,14,0.55C14,0.55,14.24,14,0,14z"/>
</g></g><g transform="translate(280,735) scale(2.5,2.5)"><g transform="" style="fill: rgb(108, 113, 196);">
    <path d="M13.999-0.001v14H0.029H0v-3.431C0,4.729,6.267-0.001,13.999-0.001z"/>
</g></g><g transform="translate(315,735) scale(0.35,0.35)"><g transform="" style="fill: rgb(108, 113, 196);">
<rect width="100" height="100"/>
</g></g><g transform="translate(350,735) scale(2.5,2.5)"><g transform="" style="fill: rgb(108, 113, 196);">
    <path d="M0,14V0c0,0,9.15,4.38,14,0.55C14,0.55,14.24,14,0,14z"/>
</g></g><g transform="translate(420,735) scale(2.5,2.5)"><g transform="" style="fill: rgb(108, 113, 196);">
        <path d="M0-0.001h14v13.97v0.029l-3.431,0.001C4.731,13.999,0,7.731,0-0.001z"/>
</g></g><g transform="translate(455,735) scale(0.35,0.35)"><g transform="" style="fill: rgb(108, 113, 196);">
<rect width="100" height="100"/>
</g></g><g transform="translate(560,735) scale(0.35,0.35)"><g transform="" style="fill: rgb(108, 113, 196);">
<rect width="100" height="100"/>
</g></g><g transform="translate(595,735) scale(0.35,0.35)"><g transform="" style="fill: rgb(108, 113, 196);">
<rect width="100" height="100"/>
</g></g><g transform="translate(630,735) scale(0.35,0.35)"><g transform="" style="fill: rgb(108, 113, 196);">
<rect width="100" height="100"/>
</g></g><g transform="translate(665,735) scale(0.35,0.35)"><g transform="" style="fill: rgb(108, 113, 196);">
<rect width="100" height="100"/>
</g></g><g transform="translate(700,735) scale(0.35,0.35)"><g transform="" style="fill: rgb(108, 113, 196);">
<rect width="100" height="100"/>
</g></g><g transform="translate(840,735) scale(0.35,0.35)"><g transform="" style="fill: rgb(108, 113, 196);">
<rect width="100" height="100"/>
</g></g><g transform="translate(875,735) scale(0.35,0.35)"><g transform="" style="fill: rgb(108, 113, 196);">
<rect width="100" height="100"/>
</g></g><g transform="translate(280,770) scale(0.35,0.35)"><g transform="" style="fill: rgb(108, 113, 196);">
<rect width="100" height="100"/>
</g></g><g transform="translate(315,770) scale(0.35,0.35)"><g transform="" style="fill: rgb(108, 113, 196);">
<rect width="100" height="100"/>
</g></g><g transform="translate(385,770) scale(0.07,0.07)"><g transform="" style="fill: rgb(108, 113, 196);">
<path d="M250,0c138.077,0,250,111.93,250,250c0,138.077-111.923,250-250,250C111.93,500,0,388.077,0,250C0,111.93,111.93,0,250,0z"
	/>
</g></g><g transform="translate(455,770) scale(0.35,0.35)"><g transform="" style="fill: rgb(108, 113, 196);">
<rect width="100" height="100"/>
</g></g><g transform="translate(525,770) scale(2.5,2.5)"><g transform="" style="fill: rgb(108, 113, 196);">
    <path d="M13.999-0.001v14H0.029H0v-3.431C0,4.729,6.267-0.001,13.999-0.001z"/>
</g></g><g transform="translate(560,770) scale(2.5,2.5)"><g transform="" style="fill: rgb(108, 113, 196);">
    <path d="M0,14V0h13.971H14v3.43C14,9.27,7.732,14,0,14z"/>
</g></g><g transform="translate(665,770) scale(0.35,0.35)"><g transform="" style="fill: rgb(108, 113, 196);">
<rect width="100" height="100"/>
</g></g><g transform="translate(700,770) scale(0.35,0.35)"><g transform="" style="fill: rgb(108, 113, 196);">
<rect width="100" height="100"/>
</g></g><g transform="translate(770,770) scale(0.07,0.07)"><g transform="" style="fill: rgb(108, 113, 196);">
<path d="M250,0c138.077,0,250,111.93,250,250c0,138.077-111.923,250-250,250C111.93,500,0,388.077,0,250C0,111.93,111.93,0,250,0z"
	/>
</g></g><g transform="translate(840,770) scale(0.35,0.35)"><g transform="" style="fill: rgb(108, 113, 196);">
<rect width="100" height="100"/>
</g></g><g transform="translate(875,770) scale(2.5,2.5)"><g transform="" style="fill: rgb(108, 113, 196);">
    <path d="M0,14V0h13.971H14v3.43C14,9.27,7.732,14,0,14z"/>
</g></g><g transform="translate(280,805) scale(0.35,0.35)"><g transform="" style="fill: rgb(108, 113, 196);">
<rect width="100" height="100"/>
</g></g><g transform="translate(315,805) scale(2.5,2.5)"><g transform="" style="fill: rgb(108, 113, 196);">
    <path d="M0,14V0h13.971H14v3.43C14,9.27,7.732,14,0,14z"/>
</g></g><g transform="translate(420,805) scale(2.5,2.5)"><g transform="" style="fill: rgb(108, 113, 196);">
    <path d="M13.999,0v14c0,0-9.151-4.381-14-0.551C-0.001,13.449-0.242,0,13.999,0z"/>
</g></g><g transform="translate(455,805) scale(0.35,0.35)"><g transform="" style="fill: rgb(108, 113, 196);">
<rect width="100" height="100"/>
</g></g><g transform="translate(525,805) scale(2.5,2.5)"><g transform="" style="fill: rgb(108, 113, 196);">
    <path d="M-0.001,0l14,0c0,0-4.381,9.151-0.551,14C13.448,14-0.001,14.24-0.001,0z"/>
</g></g><g transform="translate(595,805) scale(2.5,2.5)"><g transform="" style="fill: rgb(108, 113, 196);">
    <path d="M13.999,0v14c0,0-9.151-4.381-14-0.551C-0.001,13.449-0.242,0,13.999,0z"/>
</g></g><g transform="translate(630,805) scale(0.35,0.35)"><g transform="" style="fill: rgb(108, 113, 196);">
<rect width="100" height="100"/>
</g></g><g transform="translate(665,805) scale(0.35,0.35)"><g transform="" style="fill: rgb(108, 113, 196);">
<rect width="100" height="100"/>
</g></g><g transform="translate(700,805) scale(0.35,0.35)"><g transform="" style="fill: rgb(108, 113, 196);">
<rect width="100" height="100"/>
</g></g><g transform="translate(840,805) scale(0.35,0.35)"><g transform="" style="fill: rgb(108, 113, 196);">
<rect width="100" height="100"/>
</g></g><g transform="translate(945,805) scale(0.07,0.07)"><g transform="" style="fill: rgb(108, 113, 196);">
<path d="M250,0c138.077,0,250,111.93,250,250c0,138.077-111.923,250-250,250C111.93,500,0,388.077,0,250C0,111.93,111.93,0,250,0z"
	/>
</g></g><g transform="translate(280,840) scale(0.35,0.35)"><g transform="" style="fill: rgb(108, 113, 196);">
<rect width="100" height="100"/>
</g></g><g transform="translate(350,840) scale(2.5,2.5)"><g transform="" style="fill: rgb(108, 113, 196);">
    <path d="M13.999,0v14c0,0-9.151-4.381-14-0.551C-0.001,13.449-0.242,0,13.999,0z"/>
</g></g><g transform="translate(385,840) scale(2.5,2.5)"><g transform="" style="fill: rgb(108, 113, 196);">
    <path d="M0,14V0c0,0,9.15,4.38,14,0.55C14,0.55,14.24,14,0,14z"/>
</g></g><g transform="translate(455,840) scale(2.5,2.5)"><g transform="" style="fill: rgb(108, 113, 196);">
    <path d="M-0.001,0l14,0c0,0-4.381,9.151-0.551,14C13.448,14-0.001,14.24-0.001,0z"/>
</g></g><g transform="translate(560,840) scale(0.07,0.07)"><g transform="" style="fill: rgb(108, 113, 196);">
<path d="M250,0c138.077,0,250,111.93,250,250c0,138.077-111.923,250-250,250C111.93,500,0,388.077,0,250C0,111.93,111.93,0,250,0z"
	/>
</g></g><g transform="translate(665,840) scale(2.5,2.5)"><g transform="" style="fill: rgb(108, 113, 196);">
        <path d="M0-0.001h14v13.97v0.029l-3.431,0.001C4.731,13.999,0,7.731,0-0.001z"/>
</g></g><g transform="translate(700,840) scale(0.35,0.35)"><g transform="" style="fill: rgb(108, 113, 196);">
<rect width="100" height="100"/>
</g></g><g transform="translate(735,840) scale(0.35,0.35)"><g transform="" style="fill: rgb(108, 113, 196);">
<rect width="100" height="100"/>
</g></g><g transform="translate(770,840) scale(0.35,0.35)"><g transform="" style="fill: rgb(108, 113, 196);">
<rect width="100" height="100"/>
</g></g><g transform="translate(805,840) scale(0.35,0.35)"><g transform="" style="fill: rgb(108, 113, 196);">
<rect width="100" height="100"/>
</g></g><g transform="translate(840,840) scale(0.35,0.35)"><g transform="" style="fill: rgb(108, 113, 196);">
<rect width="100" height="100"/>
</g></g><g transform="translate(875,840) scale(2.5,2.5)"><g transform="" style="fill: rgb(108, 113, 196);">
    <path d="M0,14V0c0,0,9.15,4.38,14,0.55C14,0.55,14.24,14,0,14z"/>
</g></g><g transform="translate(280,875) scale(2.5,2.5)"><g transform="" style="fill: rgb(108, 113, 196);">
    <path d="M-0.001,0l14,0c0,0-4.381,9.151-0.551,14C13.448,14-0.001,14.24-0.001,0z"/>
</g></g><g transform="translate(420,875) scale(2.5,2.5)"><g transform="" style="fill: rgb(108, 113, 196);">
    <path d="M14,14H0c0,0,4.38-9.15,0.55-14C0.55,0,14-0.24,14,14z"/>
</g></g><g transform="translate(490,875) scale(2.5,2.5)"><g transform="" style="fill: rgb(108, 113, 196);">
    <path d="M13.999-0.001v14H0.029H0v-3.431C0,4.729,6.267-0.001,13.999-0.001z"/>
</g></g><g transform="translate(525,875) scale(2.5,2.5)"><g transform="" style="fill: rgb(108, 113, 196);">
    <path d="M13.999,13.999H0V0.028v-0.029h3.43C9.269-0.001,13.999,6.267,13.999,13.999z"/>
</g></g><g transform="translate(595,875) scale(2.5,2.5)"><g transform="" style="fill: rgb(108, 113, 196);">
    <path d="M13.999,0v14c0,0-9.151-4.381-14-0.551C-0.001,13.449-0.242,0,13.999,0z"/>
</g></g><g transform="translate(630,875) scale(2.5,2.5)"><g transform="" style="fill: rgb(108, 113, 196);">
    <path d="M13.999,13.999H0V0.028v-0.029h3.43C9.269-0.001,13.999,6.267,13.999,13.999z"/>
</g></g><g transform="translate(735,875) scale(0.35,0.35)"><g transform="" style="fill: rgb(108, 113, 196);">
<rect width="100" height="100"/>
</g></g><g transform="translate(805,875) scale(0.35,0.35)"><g transform="" style="fill: rgb(108, 113, 196);">
<rect width="100" height="100"/>
</g></g><g transform="translate(945,875) scale(2.5,2.5)"><g transform="" style="fill: rgb(108, 113, 196);">
    <path d="M14,14H0c0,0,4.38-9.15,0.55-14C0.55,0,14-0.24,14,14z"/>
</g></g><g transform="translate(315,910) scale(2.5,2.5)"><g transform="" style="fill: rgb(108, 113, 196);">
    <path d="M13.999-0.001v14H0.029H0v-3.431C0,4.729,6.267-0.001,13.999-0.001z"/>
</g></g><g transform="translate(350,910) scale(0.35,0.35)"><g transform="" style="fill: rgb(108, 113, 196);">
<rect width="100" height="100"/>
</g></g><g transform="translate(385,910) scale(0.35,0.35)"><g transform="" style="fill: rgb(108, 113, 196);">
<rect width="100" height="100"/>
</g></g><g transform="translate(420,910) scale(0.35,0.35)"><g transform="" style="fill: rgb(108, 113, 196);">
<rect width="100" height="100"/>
</g></g><g transform="translate(490,910) scale(2.5,2.5)"><g transform="" style="fill: rgb(108, 113, 196);">
        <path d="M0-0.001h14v13.97v0.029l-3.431,0.001C4.731,13.999,0,7.731,0-0.001z"/>
</g></g><g transform="translate(525,910) scale(0.35,0.35)"><g transform="" style="fill: rgb(108, 113, 196);">
<rect width="100" height="100"/>
</g></g><g transform="translate(630,910) scale(2.5,2.5)"><g transform="" style="fill: rgb(108, 113, 196);">
        <path d="M0-0.001h14v13.97v0.029l-3.431,0.001C4.731,13.999,0,7.731,0-0.001z"/>
</g></g><g transform="translate(665,910) scale(0.35,0.35)"><g transform="" style="fill: rgb(108, 113, 196);">
<rect width="100" height="100"/>
</g></g><g transform="translate(700,910) scale(0.35,0.35)"><g transform="" style="fill: rgb(108, 113, 196);">
<rect width="100" height="100"/>
</g></g><g transform="translate(735,910) scale(0.35,0.35)"><g transform="" style="fill: rgb(108, 113, 196);">
<rect width="100" height="100"/>
</g></g><g transform="translate(805,910) scale(0.35,0.35)"><g transform="" style="fill: rgb(108, 113, 196);">
<rect width="100" height="100"/>
</g></g><g transform="translate(840,910) scale(2.5,2.5)"><g transform="" style="fill: rgb(108, 113, 196);">
    <path d="M0,14V0c0,0,9.15,4.38,14,0.55C14,0.55,14.24,14,0,14z"/>
</g></g><g transform="translate(910,910) scale(2.5,2.5)"><g transform="" style="fill: rgb(108, 113, 196);">
    <path d="M13.999-0.001v14H0.029H0v-3.431C0,4.729,6.267-0.001,13.999-0.001z"/>
</g></g><g transform="translate(945,910) scale(0.35,0.35)"><g transform="" style="fill: rgb(108, 113, 196);">
<rect width="100" height="100"/>
</g></g><g transform="translate(980,910) scale(2.5,2.5)"><g transform="" style="fill: rgb(108, 113, 196);">
    <path d="M13.999,13.999H0V0.028v-0.029h3.43C9.269-0.001,13.999,6.267,13.999,13.999z"/>
</g></g><g transform="translate(315,945) scale(2.5,2.5)"><g transform="" style="fill: rgb(108, 113, 196);">
        <path d="M0-0.001h14v13.97v0.029l-3.431,0.001C4.731,13.999,0,7.731,0-0.001z"/>
</g></g><g transform="translate(350,945) scale(0.35,0.35)"><g transform="" style="fill: rgb(108, 113, 196);">
<rect width="100" height="100"/>
</g></g><g transform="translate(385,945) scale(0.35,0.35)"><g transform="" style="fill: rgb(108, 113, 196);">
<rect width="100" height="100"/>
</g></g><g transform="translate(420,945) scale(0.35,0.35)"><g transform="" style="fill: rgb(108, 113, 196);">
<rect width="100" height="100"/>
</g></g><g transform="translate(455,945) scale(2.5,2.5)"><g transform="" style="fill: rgb(108, 113, 196);">
    <path d="M13.999,13.999H0V0.028v-0.029h3.43C9.269-0.001,13.999,6.267,13.999,13.999z"/>
</g></g><g transform="translate(525,945) scale(2.5,2.5)"><g transform="" style="fill: rgb(108, 113, 196);">
    <path d="M-0.001,0l14,0c0,0-4.381,9.151-0.551,14C13.448,14-0.001,14.24-0.001,0z"/>
</g></g><g transform="translate(735,945) scale(0.35,0.35)"><g transform="" style="fill: rgb(108, 113, 196);">
<rect width="100" height="100"/>
</g></g><g transform="translate(805,945) scale(0.35,0.35)"><g transform="" style="fill: rgb(108, 113, 196);">
<rect width="100" height="100"/>
</g></g><g transform="translate(875,945) scale(2.5,2.5)"><g transform="" style="fill: rgb(108, 113, 196);">
    <path d="M13.999,0v14c0,0-9.151-4.381-14-0.551C-0.001,13.449-0.242,0,13.999,0z"/>
</g></g><g transform="translate(910,945) scale(2.5,2.5)"><g transform="" style="fill: rgb(108, 113, 196);">
    <path d="M0,14V0h13.971H14v3.43C14,9.27,7.732,14,0,14z"/>
</g></g><g transform="translate(980,945) scale(2.5,2.5)"><g transform="" style="fill: rgb(108, 113, 196);">
    <path d="M-0.001,0l14,0c0,0-4.381,9.151-0.551,14C13.448,14-0.001,14.24-0.001,0z"/>
</g></g><g transform="translate(280,980) scale(0.07,0.07)"><g transform="" style="fill: rgb(108, 113, 196);">
<path d="M250,0c138.077,0,250,111.93,250,250c0,138.077-111.923,250-250,250C111.93,500,0,388.077,0,250C0,111.93,111.93,0,250,0z"
	/>
</g></g><g transform="translate(350,980) scale(2.5,2.5)"><g transform="" style="fill: rgb(108, 113, 196);">
    <path d="M-0.001,0l14,0c0,0-4.381,9.151-0.551,14C13.448,14-0.001,14.24-0.001,0z"/>
</g></g><g transform="translate(420,980) scale(2.5,2.5)"><g transform="" style="fill: rgb(108, 113, 196);">
        <path d="M0-0.001h14v13.97v0.029l-3.431,0.001C4.731,13.999,0,7.731,0-0.001z"/>
</g></g><g transform="translate(455,980) scale(0.35,0.35)"><g transform="" style="fill: rgb(108, 113, 196);">
<rect width="100" height="100"/>
</g></g><g transform="translate(490,980) scale(2.5,2.5)"><g transform="" style="fill: rgb(108, 113, 196);">
    <path d="M0,14V0c0,0,9.15,4.38,14,0.55C14,0.55,14.24,14,0,14z"/>
</g></g><g transform="translate(665,980) scale(2.5,2.5)"><g transform="" style="fill: rgb(108, 113, 196);">
    <path d="M13.999,0v14c0,0-9.151-4.381-14-0.551C-0.001,13.449-0.242,0,13.999,0z"/>
</g></g><g transform="translate(700,980) scale(0.35,0.35)"><g transform="" style="fill: rgb(108, 113, 196);">
<rect width="100" height="100"/>
</g></g><g transform="translate(735,980) scale(0.35,0.35)"><g transform="" style="fill: rgb(108, 113, 196);">
<rect width="100" height="100"/>
</g></g><g transform="translate(770,980) scale(0.35,0.35)"><g transform="" style="fill: rgb(108, 113, 196);">
<rect width="100" height="100"/>
</g></g><g transform="translate(805,980) scale(0.35,0.35)"><g transform="" style="fill: rgb(108, 113, 196);">
<rect width="100" height="100"/>
</g></g><g transform="translate(840,980) scale(2.5,2.5)"><g transform="" style="fill: rgb(108, 113, 196);">
    <path d="M0,14V0c0,0,9.15,4.38,14,0.55C14,0.55,14.24,14,0,14z"/>
</g></g><g transform="translate(0,0) scale(2.45, 2.45)"><g transform="" style="fill: rgb(108, 113, 196);">
<g>
	<rect x="15" y="15" style="fill:none;" width="70" height="70"/>
	<path d="M85,0H15H0v15v70v15h15h70h15V85V15V0H85z M85,85H15V15h70V85z"/>
</g>
</g></g><g transform="translate(770,0) scale(2.45, 2.45)"><g transform="" style="fill: rgb(108, 113, 196);">
<g>
	<rect x="15" y="15" style="fill:none;" width="70" height="70"/>
	<path d="M85,0H15H0v15v70v15h15h70h15V85V15V0H85z M85,85H15V15h70V85z"/>
</g>
</g></g><g transform="translate(0,770) scale(2.45, 2.45)"><g transform="" style="fill: rgb(108, 113, 196);">
<g>
	<rect x="15" y="15" style="fill:none;" width="70" height="70"/>
	<path d="M85,0H15H0v15v70v15h15h70h15V85V15V0H85z M85,85H15V15h70V85z"/>
</g>
</g></g><g transform="translate(70,70) scale(0.35, 0.35)"><g transform="" style="fill: rgb(108, 113, 196);">
<g>

	<polygon points="13,0 0,87 87,100 100,13"/>
	<polygon points="100,17 183,0 200,83 117,100"/>
	<polygon points="200,10 290,0 300,90 200,100"/>

	<polygon points="5,125 75,105 195,175 25,195"/>
	<polygon points="65,63 62,232 228,238 236,68"/>
	<polygon points="215,105 205,185 285,195 295,115"/>

	<polygon points="0,215 85,200 100,285 15,300"/>
	<polygon points="100,212 188,200 200,288 112,300"/>
	<polygon points="222,200 200,278 278,300 300,222"/>


</g>
</g></g><g transform="translate(840,70) scale(0.35, 0.35)"><g transform=" translate(300, 0) scale(-1,1) " style="fill: rgb(108, 113, 196);">
<g>

	<polygon points="13,0 0,87 87,100 100,13"/>
	<polygon points="100,17 183,0 200,83 117,100"/>
	<polygon points="200,10 290,0 300,90 200,100"/>

	<polygon points="5,125 75,105 195,175 25,195"/>
	<polygon points="65,63 62,232 228,238 236,68"/>
	<polygon points="215,105 205,185 285,195 295,115"/>

	<polygon points="0,215 85,200 100,285 15,300"/>
	<polygon points="100,212 188,200 200,288 112,300"/>
	<polygon points="222,200 200,278 278,300 300,222"/>


</g>
</g></g><g transform="translate(70,840) scale(0.35, 0.35)"><g transform=" translate(0,300) scale(1,-1) " style="fill: rgb(108, 113, 196);">
<g>

	<polygon points="13,0 0,87 87,100 100,13"/>
	<polygon points="100,17 183,0 200,83 117,100"/>
	<polygon points="200,10 290,0 300,90 200,100"/>

	<polygon points="5,125 75,105 195,175 25,195"/>
	<polygon points="65,63 62,232 228,238 236,68"/>
	<polygon points="215,105 205,185 285,195 295,115"/>

	<polygon points="0,215 85,200 100,285 15,300"/>
	<polygon points="100,212 188,200 200,288 112,300"/>
	<polygon points="222,200 200,278 278,300 300,222"/>


</g>
</g></g></g></svg>